<mxfile host="app.diagrams.net" agent="Mozilla/5.0 (X11; Linux x86_64) AppleWebKit/537.36 (KHTML, like Gecko) Chrome/129.0.0.0 Safari/537.36" version="24.7.17">
  <diagram name="Page-1" id="FeAfp7CW_InY8gBXf2-i">
    <mxGraphModel dx="678" dy="557" grid="1" gridSize="10" guides="1" tooltips="1" connect="1" arrows="1" fold="1" page="1" pageScale="1" pageWidth="850" pageHeight="1100" math="0" shadow="0">
      <root>
        <mxCell id="0" />
        <mxCell id="1" parent="0" />
        <mxCell id="xN9hyJwIN51zwvWzTLNR-4" value="Main API" style="html=1;whiteSpace=wrap;" vertex="1" parent="1">
          <mxGeometry x="250" y="250" width="110" height="50" as="geometry" />
        </mxCell>
        <mxCell id="xN9hyJwIN51zwvWzTLNR-5" value="" style="shape=providedRequiredInterface;html=1;verticalLabelPosition=bottom;sketch=0;rotation=-180;" vertex="1" parent="1">
          <mxGeometry x="415" y="180" width="20" height="20" as="geometry" />
        </mxCell>
        <mxCell id="xN9hyJwIN51zwvWzTLNR-8" value="1" style="endArrow=open;html=1;endSize=12;startArrow=diamondThin;startSize=14;startFill=1;edgeStyle=orthogonalEdgeStyle;align=left;verticalAlign=bottom;rounded=0;exitX=1;exitY=0.25;exitDx=0;exitDy=0;entryX=1;entryY=0.5;entryDx=0;entryDy=0;entryPerimeter=0;" edge="1" parent="1" source="xN9hyJwIN51zwvWzTLNR-4" target="xN9hyJwIN51zwvWzTLNR-5">
          <mxGeometry x="-1" y="3" relative="1" as="geometry">
            <mxPoint x="340" y="350" as="sourcePoint" />
            <mxPoint x="500" y="350" as="targetPoint" />
          </mxGeometry>
        </mxCell>
        <mxCell id="xN9hyJwIN51zwvWzTLNR-9" value="1" style="endArrow=open;html=1;endSize=12;startArrow=diamondThin;startSize=14;startFill=1;edgeStyle=orthogonalEdgeStyle;align=left;verticalAlign=bottom;rounded=0;exitX=1;exitY=0.75;exitDx=0;exitDy=0;entryX=1;entryY=0.5;entryDx=0;entryDy=0;entryPerimeter=0;" edge="1" parent="1" source="xN9hyJwIN51zwvWzTLNR-4" target="xN9hyJwIN51zwvWzTLNR-15">
          <mxGeometry x="-1" y="3" relative="1" as="geometry">
            <mxPoint x="370" y="273" as="sourcePoint" />
            <mxPoint x="415" y="369.9999999999999" as="targetPoint" />
          </mxGeometry>
        </mxCell>
        <mxCell id="xN9hyJwIN51zwvWzTLNR-11" value="OpenShiftClusterConnector&lt;span style=&quot;background-color: initial;&quot;&gt;&amp;nbsp;&lt;/span&gt;" style="html=1;whiteSpace=wrap;" vertex="1" parent="1">
          <mxGeometry x="480" y="120" width="170" height="60" as="geometry" />
        </mxCell>
        <mxCell id="xN9hyJwIN51zwvWzTLNR-12" value="MockClusterConnector" style="html=1;whiteSpace=wrap;" vertex="1" parent="1">
          <mxGeometry x="480" y="220" width="170" height="50" as="geometry" />
        </mxCell>
        <mxCell id="xN9hyJwIN51zwvWzTLNR-13" value="" style="endArrow=block;dashed=1;endFill=0;endSize=12;html=1;rounded=0;exitX=0;exitY=0.5;exitDx=0;exitDy=0;entryX=0.121;entryY=0.8;entryDx=0;entryDy=0;entryPerimeter=0;" edge="1" parent="1" source="xN9hyJwIN51zwvWzTLNR-11" target="xN9hyJwIN51zwvWzTLNR-5">
          <mxGeometry width="160" relative="1" as="geometry">
            <mxPoint x="340" y="350" as="sourcePoint" />
            <mxPoint x="440" y="180" as="targetPoint" />
          </mxGeometry>
        </mxCell>
        <mxCell id="xN9hyJwIN51zwvWzTLNR-14" value="" style="endArrow=block;dashed=1;endFill=0;endSize=12;html=1;rounded=0;exitX=0;exitY=0.5;exitDx=0;exitDy=0;entryX=0.093;entryY=0.236;entryDx=0;entryDy=0;entryPerimeter=0;" edge="1" parent="1" target="xN9hyJwIN51zwvWzTLNR-5">
          <mxGeometry width="160" relative="1" as="geometry">
            <mxPoint x="485" y="245" as="sourcePoint" />
            <mxPoint x="435" y="200" as="targetPoint" />
          </mxGeometry>
        </mxCell>
        <mxCell id="xN9hyJwIN51zwvWzTLNR-15" value="" style="shape=providedRequiredInterface;html=1;verticalLabelPosition=bottom;sketch=0;rotation=-180;" vertex="1" parent="1">
          <mxGeometry x="415" y="360" width="20" height="20" as="geometry" />
        </mxCell>
        <mxCell id="xN9hyJwIN51zwvWzTLNR-16" value="OpenShiftAgentManager" style="html=1;whiteSpace=wrap;" vertex="1" parent="1">
          <mxGeometry x="480" y="300" width="170" height="60" as="geometry" />
        </mxCell>
        <mxCell id="xN9hyJwIN51zwvWzTLNR-17" value="MockAgentManager" style="html=1;whiteSpace=wrap;" vertex="1" parent="1">
          <mxGeometry x="480" y="400" width="170" height="50" as="geometry" />
        </mxCell>
        <mxCell id="xN9hyJwIN51zwvWzTLNR-18" value="" style="endArrow=block;dashed=1;endFill=0;endSize=12;html=1;rounded=0;exitX=0;exitY=0.5;exitDx=0;exitDy=0;entryX=0.121;entryY=0.8;entryDx=0;entryDy=0;entryPerimeter=0;" edge="1" parent="1" source="xN9hyJwIN51zwvWzTLNR-16" target="xN9hyJwIN51zwvWzTLNR-15">
          <mxGeometry width="160" relative="1" as="geometry">
            <mxPoint x="340" y="530" as="sourcePoint" />
            <mxPoint x="440" y="360" as="targetPoint" />
          </mxGeometry>
        </mxCell>
        <mxCell id="xN9hyJwIN51zwvWzTLNR-19" value="" style="endArrow=block;dashed=1;endFill=0;endSize=12;html=1;rounded=0;exitX=0;exitY=0.5;exitDx=0;exitDy=0;entryX=0.093;entryY=0.236;entryDx=0;entryDy=0;entryPerimeter=0;" edge="1" parent="1" target="xN9hyJwIN51zwvWzTLNR-15">
          <mxGeometry width="160" relative="1" as="geometry">
            <mxPoint x="485" y="425" as="sourcePoint" />
            <mxPoint x="435" y="380" as="targetPoint" />
          </mxGeometry>
        </mxCell>
      </root>
    </mxGraphModel>
  </diagram>
</mxfile>
